<svg version="1" xmlns="http://www.w3.org/2000/svg" width="373.333" height="373.333" viewBox="0 0 280.000000 280.000000"><path d="M15.5 42.5L13 45.1v122l2.6 2.4 2.7 2.5 51.1.2 51.1.3v30l-24.4.1c-23.9.2-26.1.5-26.1 3.4 0 3.1 1.4 3.1 72 3.2 71.2.1 72 0 72-3.2 0-3-2.1-3.2-24.9-3.2-12.7 0-23.2-.3-23.2-.6-.1-.4-.2-7.3-.3-15.5l-.1-14.7h102.4l2.6-2.5 2.5-2.6V45.1l-2.5-2.6-2.6-2.5H18.1l-2.6 2.5zm251.3 3.7c1.7 1.7 1.7 117.9 0 119.6-1.6 1.6-243.9 1.8-246.9.2-1.8-1-1.9-2.8-1.9-59.8 0-44.4.3-59.1 1.2-60 1.7-1.7 245.9-1.7 247.6 0zM160.5 187.5v15l-17.5.2-17.5.2.1-14.7c.1-8.1.2-15 .3-15.5 0-.4 7.9-.6 17.4-.5l17.2.3v15z"/><path d="M181.6 70.9c-.4.5.4 1.8 1.7 2.8 1.3 1 5.5 4.6 9.3 8 3.8 3.3 10.9 9.6 15.9 13.9 13.2 11.6 12.3 10.4 9.5 12.6-11.2 9.1-36.8 32.3-36.3 33 .3.5 1.5.1 2.7-.9 1.1-1.1 5.5-4.8 9.6-8.4 4.1-3.5 7.7-6.6 8-6.9.3-.3 3.9-3.5 8-7 4.1-3.6 8.8-7.8 10.4-9.4l2.9-2.9-3.4-3c-1.9-1.6-5-4.4-6.9-6.1-2-1.7-6.7-5.8-10.5-9.1-3.9-3.3-8.8-7.6-11-9.7-6.5-5.9-9.3-7.9-9.9-6.9zM99.8 72.3c-.7.6-8 7.1-16.2 14.2-8.2 7.2-16.5 14.4-18.4 16.1l-3.6 3.2 3.5 3.3c2.9 2.8 11.9 10.7 34.8 30.6 1.3 1.2 2.9 1.9 3.5 1.6.5-.3-.4-1.7-2-3.1-2.5-2.1-14.4-12.7-17.8-15.7-.6-.6-4.5-3.9-8.6-7.4-4.1-3.6-8.1-7.1-8.9-7.8-1.6-1.4-1.9-1.1 10-11.3 3.5-3 8.9-7.8 11.9-10.5 3.1-2.8 8-7.1 11-9.7 3.4-3 4.9-4.8 3.8-4.8-.9 0-2.3.6-3 1.3zM151.5 72.2c-.6 2-2.7 10.2-2.7 10.8 0 .3-.5 1.8-1.2 3.5-.7 1.6-1.3 3.3-1.4 3.8-.1.4-.6 2.4-1.2 4.5-10.7 37.7-12.8 45.7-12.4 46.1.9.9 2.1-1.6 3.8-7.9 1-3.6 2.2-7.9 2.7-9.5.5-1.7 3.9-13.4 7.5-26 3.5-12.7 6.7-23.8 7-24.8.6-1.9-1.4-2.4-2.1-.5z"/></svg>